Coordinates
version=1
nRows=43
nColumns=12
inDegrees=yes

Units are S.I. units (second, meters, Newtons, ...)
Angles are in degrees

endheader
time	SC_y	SC_z	SC_x	AC_y	AC_z	AC_x	GH_y	GH_z	GH_yy	EL_x	PS_y
       0.0              -41.21          4.378          31.21          30.36         -1.036         -11.86          72.83          44.09          29.74           21.2          124.5
    0.0407               -41.2          4.383          31.22          30.36         -1.035         -11.86           72.8          44.09          29.73           21.2          124.4
    0.0814               -41.2          4.388          31.22          30.36         -1.034         -11.85          72.76          44.09          29.72           21.2          124.4
    0.1221               -41.2          4.394          31.23          30.37         -1.032         -11.85          72.73           44.1          29.71           21.2          124.4
    0.1628              -41.19          4.401          31.24          30.37         -1.031         -11.85          72.69           44.1          29.69           21.2          124.4
    0.2035              -41.19          4.407          31.25          30.37          -1.03         -11.84          72.65           44.1          29.68           21.2          124.4
    0.2442              -41.18          4.414          31.26          30.37         -1.028         -11.84           72.6           44.1          29.66           21.2          124.4
    0.2849              -41.18          4.422          31.27          30.37         -1.026         -11.84          72.55          44.11          29.65           21.2          124.4
    0.3256              -41.17           4.43          31.28          30.38         -1.024         -11.83           72.5          44.11          29.63           21.2          124.4
    0.3663              -41.16          4.439          31.29          30.38         -1.022         -11.83          72.45          44.12          29.61           21.2          124.3
     0.407              -41.16          4.448          31.31          30.38          -1.02         -11.82          72.39          44.12          29.59           21.2          124.3
    0.4477              -41.15          4.458          31.32          30.39         -1.018         -11.81          72.32          44.12          29.57           21.2          124.3
    0.4884              -41.14          4.469          31.34          30.39         -1.016         -11.81          72.26          44.13          29.55           21.2          124.3
    0.5291              -41.13          4.481          31.35          30.39         -1.013          -11.8          72.18          44.13          29.52          21.21          124.3
    0.5698              -41.13          4.493          31.37           30.4          -1.01         -11.79           72.1          44.14           29.5          21.21          124.2
    0.6105              -41.12          4.507          31.39           30.4         -1.007         -11.79          72.02          44.15          29.47          21.21          124.2
    0.6512               -41.1          4.522          31.41          30.41         -1.004         -11.78          71.92          44.15          29.44          21.21          124.2
    0.6919              -41.09          4.539          31.43          30.41           -1.0         -11.77          71.82          44.16           29.4          21.21          124.2
    0.7326              -41.08          4.556          31.46          30.42        -0.9961         -11.76          71.71          44.17          29.36          21.21          124.1
    0.7733              -41.07          4.576          31.49          30.42        -0.9917         -11.75          71.58          44.18          29.32          21.21          124.1
     0.814              -41.05          4.597          31.52          30.43        -0.9869         -11.73          71.45          44.19          29.28          21.21          124.0
    0.8547              -41.03          4.621          31.55          30.44        -0.9816         -11.72           71.3           44.2          29.23          21.22          124.0
    0.8954              -41.02          4.647          31.59          30.45        -0.9758         -11.71          71.13          44.21          29.17          21.22          124.0
    0.9361               -41.0          4.676          31.63          30.46        -0.9693         -11.69          70.95          44.22          29.11          21.22          123.9
    0.9768              -40.97          4.708          31.67          30.47        -0.9622         -11.67          70.75          44.24          29.04          21.22          123.8
     1.017              -40.95          4.744          31.72          30.48        -0.9542         -11.65          70.52          44.25          28.97          21.22          123.8
     1.058              -40.92          4.784          31.78          30.49        -0.9452         -11.63          70.27          44.27          28.88          21.23          123.7
     1.099              -40.89          4.829          31.84          30.51        -0.9351          -11.6          69.99          44.29          28.79          21.23          123.6
      1.14              -40.85           4.88          31.91          30.52        -0.9237         -11.57          69.67          44.32          28.68          21.23          123.5
      1.18              -40.81          4.938           32.0          30.54        -0.9107         -11.54           69.3          44.34          28.56          21.24          123.4
     1.221              -40.76          5.004          32.09          30.56        -0.8959          -11.5          68.89          44.37          28.42          21.24          123.3
     1.262              -40.71           5.08           32.2          30.59        -0.8789         -11.45          68.41          44.41          28.26          21.25          123.2
     1.302              -40.64          5.167          32.32          30.62        -0.8594          -11.4          67.86          44.45          28.08          21.25          123.0
     1.343              -40.57          5.269          32.46          30.65        -0.8366         -11.35          67.21          44.49          27.86          21.26          122.8
     1.384              -40.49          5.388          32.63          30.69        -0.8099         -11.28          66.46          44.55          27.61          21.27          122.6
     1.424              -40.39          5.528          32.83          30.74        -0.7785          -11.2          65.58          44.61          27.31          21.28          122.3
     1.465              -40.27          5.695          33.06          30.79        -0.7412          -11.1          64.53          44.68          26.96          21.29          122.0
     1.506              -40.13          5.894          33.34          30.86        -0.6965         -10.98          63.27          44.77          26.54          21.31          121.6
     1.547              -39.95          6.136          33.68          30.93        -0.6424         -10.84          61.75          44.88          26.03          21.32          121.2
     1.587              -39.74          6.431           34.1          31.03        -0.5763         -10.67          59.88          45.02          25.41          21.35          120.6
     1.628              -39.48          6.796          34.61          31.15        -0.4947         -10.46          57.59          45.18          24.64          21.37          120.0
     1.669              -39.16           7.25          35.25           31.3        -0.3929          -10.2          54.72          45.39          23.68           21.4          119.1
     1.709              -38.75          7.822          36.05          31.48        -0.2647         -9.869          51.11          45.65          22.47          21.45          118.0
